<?xml version="1.0" standalone="no"?>
<!DOCTYPE svg PUBLIC "-//W3C//DTD SVG 20010904//EN"
 "http://www.w3.org/TR/2001/REC-SVG-20010904/DTD/svg10.dtd">
<svg version="1.0" xmlns="http://www.w3.org/2000/svg"
 width="1119.000000pt" height="1280.000000pt" viewBox="0 0 1119.000000 1280.000000"
 preserveAspectRatio="xMidYMid meet">
<g transform="translate(0.000000,1280.000000) scale(0.100000,-0.100000)"
fill="#000000" stroke="none">
<path d="M5110 12779 c-489 -35 -836 -84 -1245 -176 -1005 -225 -1980 -652
-2855 -1252 -344 -235 -744 -554 -901 -718 -54 -55 -109 -129 -109 -145 0 -19
65 -37 170 -47 386 -39 820 -232 1280 -569 225 -166 578 -474 910 -796 118
-115 229 -215 246 -224 52 -24 89 -9 259 109 1258 871 2547 1112 3770 704
1120 -375 2049 -1299 2369 -2359 80 -263 107 -461 109 -801 2 -233 1 -245 -19
-272 -11 -15 -38 -38 -60 -50 -50 -29 -639 -220 -1023 -333 l-74 -21 7 -87 c3
-48 15 -148 26 -222 29 -197 39 -445 30 -681 -13 -308 -23 -400 -125 -1164
-68 -519 -80 -797 -50 -1175 59 -740 182 -1087 608 -1725 138 -206 273 -398
380 -537 87 -115 207 -238 233 -238 18 0 51 77 58 135 3 28 11 147 16 265 26
523 104 961 270 1510 154 508 277 826 763 1971 278 654 426 1027 569 1434 245
693 382 1297 433 1900 8 105 20 242 25 307 13 147 13 272 0 412 -5 61 -14 176
-20 256 -55 720 -269 1414 -620 2020 -289 497 -694 962 -1160 1331 -897 709
-2081 1145 -3340 1229 -91 6 -206 15 -257 20 -132 14 -380 10 -673 -11z"/>
<path d="M5305 9393 c-576 -33 -1049 -155 -1554 -399 -289 -140 -499 -269
-777 -477 -164 -122 -204 -165 -204 -217 0 -44 9 -57 135 -200 56 -63 132
-153 170 -200 139 -172 173 -200 247 -200 56 0 91 18 224 117 167 122 273 187
459 278 571 281 1192 346 1815 190 510 -128 1017 -432 1358 -815 272 -305 454
-633 562 -1014 22 -76 45 -145 51 -152 21 -26 48 -24 190 17 79 22 269 65 421
94 302 59 422 88 453 111 27 20 26 79 -4 169 -44 136 -193 502 -265 651 -518
1072 -1369 1762 -2449 1983 -248 51 -597 78 -832 64z"/>
<path d="M5060 7950 c-609 -72 -1144 -303 -1595 -690 -109 -94 -1476 -1477
-2530 -2560 -185 -191 -344 -379 -365 -434 -18 -48 10 -78 203 -223 274 -206
305 -220 374 -161 374 321 824 775 1453 1468 418 460 423 465 503 498 105 44
207 62 350 62 149 0 260 -18 410 -66 408 -132 791 -418 1013 -760 55 -84 169
-310 179 -354 9 -40 -25 -82 -132 -162 -185 -140 -289 -201 -458 -268 -365
-145 -828 -168 -1173 -59 -194 62 -325 140 -466 277 -46 45 -91 82 -100 82
-46 0 -136 -118 -213 -280 -72 -150 -381 -656 -1211 -1975 -228 -363 -426
-684 -440 -713 -19 -43 -22 -59 -14 -77 11 -23 224 -188 332 -257 239 -153
566 -260 960 -315 179 -25 649 -25 850 0 743 92 1346 369 1646 759 60 77 112
175 199 379 77 178 96 209 126 209 10 0 44 -32 77 -73 125 -153 247 -245 467
-352 354 -173 933 -358 1362 -434 61 -11 172 -32 247 -46 199 -39 203 -35 157
191 -102 506 -132 1091 -85 1659 24 294 58 533 143 1030 80 462 105 726 104
1115 0 388 -30 647 -108 945 -230 879 -793 1424 -1620 1566 -136 24 -512 34
-645 19z"/>
</g>
</svg>
